<svg xmlns="http://www.w3.org/2000/svg" xmlns:xlink="http://www.w3.org/1999/xlink" width="200" zoomAndPan="magnify" viewBox="0 0 150 187.499995" height="250" preserveAspectRatio="xMidYMid meet" version="1.0"><defs><g/><clipPath id="128be065c9"><path d="M 29 29.992188 L 45 29.992188 L 45 46 L 29 46 Z M 29 29.992188 " clip-rule="nonzero"/></clipPath><clipPath id="07f4e32ebc"><path d="M 15.160156 88 L 34 88 L 34 107 L 15.160156 107 Z M 15.160156 88 " clip-rule="nonzero"/></clipPath><clipPath id="2c6745ca1c"><path d="M 126 135 L 140.078125 135 L 140.078125 149 L 126 149 Z M 126 135 " clip-rule="nonzero"/></clipPath><clipPath id="dc06a9510f"><path d="M 15.160156 129 L 26 129 L 26 139 L 15.160156 139 Z M 15.160156 129 " clip-rule="nonzero"/></clipPath></defs><g fill="#000000" fill-opacity="1"><g transform="translate(124.940539, 62.008485)"><g><path d="M 0.4375 -0.3125 C 0.4375 -0.4375 0.46875 -0.53125 0.53125 -0.59375 C 0.59375 -0.664062 0.675781 -0.703125 0.78125 -0.703125 C 0.894531 -0.703125 0.984375 -0.664062 1.046875 -0.59375 C 1.109375 -0.53125 1.140625 -0.4375 1.140625 -0.3125 C 1.140625 -0.1875 1.109375 -0.0859375 1.046875 -0.015625 C 0.984375 0.046875 0.894531 0.078125 0.78125 0.078125 C 0.6875 0.078125 0.601562 0.0507812 0.53125 0 C 0.46875 -0.0625 0.4375 -0.164062 0.4375 -0.3125 Z M 0.4375 -0.3125 "/></g></g></g><g clip-path="url(#128be065c9)"><path fill="#ffbd59" d="M 37.257812 29.992188 L 37.546875 36.324219 C 37.589844 37.25 38.492188 37.894531 39.382812 37.628906 L 44.796875 36.019531 L 39.375 38.292969 C 38.574219 38.628906 38.257812 39.59375 38.699219 40.339844 L 41.917969 45.769531 L 38.410156 40.984375 C 37.839844 40.203125 36.675781 40.203125 36.105469 40.984375 L 32.601562 45.769531 L 35.820312 40.339844 C 36.261719 39.59375 35.941406 38.628906 35.144531 38.292969 L 29.722656 36.019531 L 35.136719 37.628906 C 36.023438 37.894531 36.925781 37.25 36.96875 36.324219 Z M 37.257812 29.992188 " fill-opacity="1" fill-rule="nonzero"/></g><path fill="#ffbd59" d="M 70.984375 38.363281 L 71.085938 40.417969 C 71.132812 41.328125 72.007812 41.964844 72.886719 41.726562 L 74.875 41.1875 L 72.949219 41.921875 C 72.101562 42.246094 71.765625 43.273438 72.265625 44.039062 L 73.390625 45.761719 L 72.097656 44.160156 C 71.523438 43.449219 70.445312 43.449219 69.871094 44.160156 L 68.578125 45.761719 L 69.707031 44.039062 C 70.203125 43.273438 69.867188 42.246094 69.019531 41.921875 L 67.09375 41.1875 L 69.082031 41.726562 C 69.960938 41.964844 70.835938 41.328125 70.882812 40.417969 Z M 70.984375 38.363281 " fill-opacity="1" fill-rule="nonzero"/><path fill="#ffbd59" d="M 97.683594 74.480469 L 97.613281 73.117188 L 97.542969 74.480469 C 97.5 75.386719 96.625 76.023438 95.746094 75.785156 L 94.429688 75.429688 L 95.703125 75.917969 C 96.554688 76.242188 96.886719 77.269531 96.390625 78.03125 L 95.644531 79.171875 L 96.5 78.113281 C 97.074219 77.402344 98.152344 77.402344 98.726562 78.113281 L 99.582031 79.171875 L 98.835938 78.03125 C 98.339844 77.269531 98.671875 76.242188 99.523438 75.917969 L 100.796875 75.429688 L 99.480469 75.785156 C 98.601562 76.023438 97.726562 75.386719 97.683594 74.480469 Z M 97.683594 74.480469 " fill-opacity="1" fill-rule="nonzero"/><path fill="#ffbd59" d="M 52.015625 120.765625 L 52.144531 123.324219 C 52.191406 124.234375 53.066406 124.871094 53.945312 124.632812 L 56.417969 123.964844 L 54.023438 124.878906 C 53.171875 125.203125 52.839844 126.230469 53.335938 126.992188 L 54.738281 129.140625 L 53.128906 127.144531 C 52.558594 126.433594 51.476562 126.433594 50.90625 127.144531 L 49.296875 129.140625 L 50.695312 126.992188 C 51.195312 126.230469 50.859375 125.203125 50.007812 124.878906 L 47.613281 123.964844 L 50.089844 124.632812 C 50.96875 124.871094 51.84375 124.234375 51.886719 123.324219 Z M 52.015625 120.765625 " fill-opacity="1" fill-rule="nonzero"/><path fill="#ffbd59" d="M 94.445312 144.820312 L 94.425781 144.410156 L 94.402344 144.820312 C 94.359375 145.730469 93.484375 146.367188 92.605469 146.128906 L 92.207031 146.023438 L 92.59375 146.167969 C 93.441406 146.492188 93.777344 147.519531 93.277344 148.285156 L 93.054688 148.628906 L 93.3125 148.308594 C 93.882812 147.597656 94.964844 147.597656 95.535156 148.308594 L 95.792969 148.628906 L 95.570312 148.285156 C 95.070312 147.519531 95.40625 146.492188 96.257812 146.167969 L 96.640625 146.023438 L 96.242188 146.128906 C 95.363281 146.367188 94.492188 145.730469 94.445312 144.820312 Z M 94.445312 144.820312 " fill-opacity="1" fill-rule="nonzero"/><path fill="#ffbd59" d="M 115.4375 32.292969 L 115.601562 35.578125 C 115.648438 36.484375 116.523438 37.121094 117.402344 36.882812 L 120.578125 36.027344 L 117.503906 37.199219 C 116.652344 37.523438 116.320312 38.550781 116.816406 39.3125 L 118.613281 42.066406 L 116.550781 39.507812 C 115.976562 38.796875 114.898438 38.796875 114.324219 39.507812 L 112.261719 42.066406 L 114.058594 39.3125 C 114.554688 38.550781 114.222656 37.523438 113.371094 37.199219 L 110.300781 36.027344 L 113.472656 36.882812 C 114.351562 37.121094 115.226562 36.484375 115.273438 35.578125 Z M 115.4375 32.292969 " fill-opacity="1" fill-rule="nonzero"/><path fill="#ffbd59" d="M 27.527344 67.292969 L 27.460938 66.015625 L 27.398438 67.292969 C 27.351562 68.203125 26.476562 68.835938 25.597656 68.597656 L 24.363281 68.265625 L 25.558594 68.722656 C 26.410156 69.046875 26.742188 70.074219 26.246094 70.835938 L 25.546875 71.90625 L 26.351562 70.910156 C 26.921875 70.203125 28.003906 70.203125 28.574219 70.910156 L 29.375 71.90625 L 28.675781 70.835938 C 28.179688 70.074219 28.515625 69.046875 29.363281 68.722656 L 30.558594 68.265625 L 29.324219 68.597656 C 28.445312 68.835938 27.570312 68.203125 27.527344 67.292969 Z M 27.527344 67.292969 " fill-opacity="1" fill-rule="nonzero"/><path fill="#ffbd59" d="M 76.820312 95.890625 L 76.921875 97.910156 C 76.96875 98.820312 77.839844 99.457031 78.722656 99.21875 L 80.675781 98.691406 L 78.785156 99.410156 C 77.933594 99.734375 77.597656 100.761719 78.097656 101.527344 L 79.203125 103.222656 L 77.933594 101.644531 C 77.359375 100.9375 76.28125 100.9375 75.707031 101.644531 L 74.4375 103.222656 L 75.542969 101.527344 C 76.042969 100.761719 75.707031 99.734375 74.855469 99.410156 L 72.964844 98.691406 L 74.917969 99.21875 C 75.796875 99.457031 76.671875 98.820312 76.71875 97.910156 Z M 76.820312 95.890625 " fill-opacity="1" fill-rule="nonzero"/><path fill="#ffbd59" d="M 52.421875 59.328125 L 52.351562 57.960938 L 52.28125 59.328125 C 52.238281 60.238281 51.363281 60.875 50.484375 60.636719 L 49.160156 60.28125 L 50.441406 60.769531 C 51.292969 61.09375 51.625 62.121094 51.128906 62.882812 L 50.378906 64.03125 L 51.238281 62.964844 C 51.8125 62.253906 52.890625 62.253906 53.464844 62.964844 L 54.324219 64.03125 L 53.574219 62.882812 C 53.078125 62.121094 53.410156 61.09375 54.261719 60.769531 L 55.542969 60.28125 L 54.21875 60.636719 C 53.339844 60.875 52.464844 60.238281 52.421875 59.328125 Z M 52.421875 59.328125 " fill-opacity="1" fill-rule="nonzero"/><path fill="#ffbd59" d="M 54.578125 81.84375 C 54.617188 82.558594 55.300781 83.058594 55.992188 82.871094 C 55.324219 83.125 55.0625 83.929688 55.453125 84.53125 C 55.003906 83.972656 54.15625 83.972656 53.707031 84.53125 C 54.097656 83.929688 53.835938 83.125 53.167969 82.871094 C 53.859375 83.058594 54.542969 82.558594 54.578125 81.84375 Z M 54.578125 81.84375 " fill-opacity="1" fill-rule="nonzero"/><path fill="#ffbd59" d="M 42.554688 148.921875 L 42.300781 143.933594 L 42.050781 148.921875 C 42.007812 149.832031 41.132812 150.464844 40.253906 150.226562 L 35.433594 148.925781 L 40.097656 150.703125 C 40.949219 151.027344 41.28125 152.054688 40.785156 152.820312 L 38.058594 157 L 41.191406 153.113281 C 41.761719 152.40625 42.84375 152.40625 43.414062 153.113281 L 46.546875 157 L 43.820312 152.820312 C 43.320312 152.054688 43.65625 151.027344 44.507812 150.703125 L 49.171875 148.925781 L 44.351562 150.226562 C 43.472656 150.464844 42.597656 149.832031 42.554688 148.921875 Z M 42.554688 148.921875 " fill-opacity="1" fill-rule="nonzero"/><path fill="#ffbd59" d="M 104.554688 99.0625 L 104.683594 101.597656 C 104.730469 102.507812 105.605469 103.140625 106.484375 102.902344 L 108.929688 102.242188 L 106.5625 103.144531 C 105.710938 103.46875 105.378906 104.496094 105.875 105.261719 L 107.261719 107.382812 L 105.667969 105.410156 C 105.097656 104.703125 104.015625 104.703125 103.445312 105.410156 L 101.851562 107.382812 L 103.238281 105.261719 C 103.738281 104.496094 103.402344 103.46875 102.550781 103.144531 L 100.183594 102.242188 L 102.628906 102.902344 C 103.507812 103.140625 104.382812 102.507812 104.429688 101.597656 Z M 104.554688 99.0625 " fill-opacity="1" fill-rule="nonzero"/><path fill="#ffbd59" d="M 53.277344 99.546875 L 53.179688 97.597656 L 53.082031 99.546875 C 53.035156 100.453125 52.164062 101.089844 51.285156 100.851562 L 49.398438 100.34375 L 51.222656 101.039062 C 52.074219 101.363281 52.40625 102.390625 51.910156 103.152344 L 50.84375 104.789062 L 52.070312 103.269531 C 52.640625 102.558594 53.722656 102.558594 54.292969 103.269531 L 55.519531 104.789062 L 54.453125 103.152344 C 53.953125 102.390625 54.289062 101.363281 55.136719 101.039062 L 56.960938 100.34375 L 55.078125 100.851562 C 54.199219 101.089844 53.324219 100.453125 53.277344 99.546875 Z M 53.277344 99.546875 " fill-opacity="1" fill-rule="nonzero"/><g clip-path="url(#07f4e32ebc)"><path fill="#ffbd59" d="M 24.351562 88.867188 L 24.71875 96.136719 C 24.765625 97.046875 25.636719 97.683594 26.515625 97.445312 L 33.546875 95.546875 L 26.742188 98.140625 C 25.890625 98.464844 25.558594 99.492188 26.054688 100.253906 L 30.035156 106.351562 L 25.464844 100.683594 C 24.894531 99.976562 23.8125 99.976562 23.242188 100.683594 L 18.671875 106.351562 L 22.648438 100.253906 C 23.148438 99.492188 22.8125 98.464844 21.960938 98.140625 L 15.160156 95.546875 L 22.1875 97.445312 C 23.066406 97.683594 23.941406 97.046875 23.988281 96.136719 Z M 24.351562 88.867188 " fill-opacity="1" fill-rule="nonzero"/></g><g clip-path="url(#2c6745ca1c)"><path fill="#ffbd59" d="M 133.527344 140.550781 L 133.277344 135.5625 L 133.023438 140.550781 C 132.980469 141.460938 132.105469 142.09375 131.226562 141.855469 L 126.40625 140.554688 L 131.070312 142.332031 C 131.921875 142.65625 132.253906 143.683594 131.757812 144.449219 L 129.03125 148.628906 L 132.164062 144.742188 C 132.734375 144.035156 133.816406 144.035156 134.386719 144.742188 L 137.519531 148.628906 L 134.792969 144.449219 C 134.296875 143.683594 134.628906 142.65625 135.480469 142.332031 L 140.144531 140.554688 L 135.324219 141.855469 C 134.445312 142.09375 133.570312 141.460938 133.527344 140.550781 Z M 133.527344 140.550781 " fill-opacity="1" fill-rule="nonzero"/></g><path fill="#ffbd59" d="M 75.355469 68.949219 L 75.484375 71.484375 C 75.53125 72.394531 76.402344 73.027344 77.28125 72.789062 L 79.730469 72.128906 L 77.363281 73.03125 C 76.511719 73.359375 76.175781 74.386719 76.675781 75.148438 L 78.058594 77.273438 L 76.46875 75.296875 C 75.898438 74.589844 74.816406 74.589844 74.246094 75.296875 L 72.652344 77.273438 L 74.039062 75.148438 C 74.535156 74.386719 74.203125 73.359375 73.351562 73.03125 L 70.980469 72.128906 L 73.429688 72.789062 C 74.308594 73.027344 75.183594 72.394531 75.230469 71.484375 Z M 75.355469 68.949219 " fill-opacity="1" fill-rule="nonzero"/><path fill="#ffbd59" d="M 99.765625 47.863281 L 99.566406 43.957031 L 99.371094 47.863281 C 99.324219 48.773438 98.453125 49.410156 97.574219 49.171875 L 93.792969 48.152344 L 97.449219 49.546875 C 98.300781 49.871094 98.636719 50.898438 98.136719 51.660156 L 96 54.9375 L 98.457031 51.890625 C 99.027344 51.183594 100.109375 51.183594 100.679688 51.890625 L 103.136719 54.9375 L 100.996094 51.660156 C 100.5 50.898438 100.832031 49.871094 101.683594 49.546875 L 105.339844 48.152344 L 101.5625 49.171875 C 100.683594 49.410156 99.808594 48.773438 99.765625 47.863281 Z M 99.765625 47.863281 " fill-opacity="1" fill-rule="nonzero"/><path fill="#ffbd59" d="M 96.671875 117.511719 L 96.945312 122.980469 C 96.992188 123.890625 97.863281 124.523438 98.742188 124.285156 L 104.027344 122.859375 L 98.914062 124.808594 C 98.0625 125.132812 97.730469 126.160156 98.226562 126.925781 L 101.21875 131.507812 L 97.78125 127.246094 C 97.210938 126.539062 96.128906 126.539062 95.558594 127.246094 L 92.121094 131.507812 L 95.113281 126.925781 C 95.609375 126.160156 95.277344 125.132812 94.425781 124.808594 L 89.3125 122.859375 L 94.597656 124.285156 C 95.476562 124.523438 96.347656 123.890625 96.394531 122.980469 Z M 96.671875 117.511719 " fill-opacity="1" fill-rule="nonzero"/><path fill="#ffbd59" d="M 98.746094 126.800781 L 99.136719 125.742188 L 99.175781 125.757812 L 98.78125 126.816406 Z M 98.746094 126.800781 " fill-opacity="1" fill-rule="nonzero"/><path fill="#ffbd59" d="M 76.847656 118.144531 L 76.8125 117.496094 L 76.78125 118.144531 C 76.734375 119.054688 75.859375 119.691406 74.980469 119.453125 L 74.351562 119.28125 L 74.960938 119.515625 C 75.8125 119.839844 76.144531 120.867188 75.648438 121.628906 L 75.292969 122.175781 L 75.699219 121.667969 C 76.273438 120.960938 77.351562 120.960938 77.925781 121.667969 L 78.332031 122.175781 L 77.976562 121.628906 C 77.480469 120.867188 77.8125 119.839844 78.664062 119.515625 L 79.273438 119.28125 L 78.644531 119.453125 C 77.765625 119.691406 76.890625 119.054688 76.847656 118.144531 Z M 76.847656 118.144531 " fill-opacity="1" fill-rule="nonzero"/><path fill="#ffbd59" d="M 124.996094 108.1875 L 125.273438 113.65625 C 125.316406 114.566406 126.191406 115.199219 127.070312 114.964844 L 132.355469 113.535156 L 127.242188 115.484375 C 126.390625 115.808594 126.054688 116.839844 126.554688 117.601562 L 129.546875 122.183594 L 126.109375 117.925781 C 125.539062 117.214844 124.457031 117.214844 123.886719 117.925781 L 120.449219 122.183594 L 123.441406 117.601562 C 123.9375 116.839844 123.605469 115.808594 122.753906 115.484375 L 117.640625 113.535156 L 122.921875 114.964844 C 123.800781 115.199219 124.675781 114.566406 124.722656 113.65625 Z M 124.996094 108.1875 " fill-opacity="1" fill-rule="nonzero"/><g clip-path="url(#dc06a9510f)"><path fill="#ffbd59" d="M 20.703125 132.097656 L 20.554688 129.144531 L 20.40625 132.097656 C 20.359375 133.007812 19.484375 133.644531 18.605469 133.40625 L 15.75 132.636719 L 18.515625 133.6875 C 19.363281 134.015625 19.699219 135.042969 19.199219 135.804688 L 17.585938 138.28125 L 19.441406 135.980469 C 20.011719 135.269531 21.09375 135.269531 21.664062 135.980469 L 23.523438 138.28125 L 21.90625 135.804688 C 21.40625 135.042969 21.742188 134.015625 22.59375 133.6875 L 25.355469 132.636719 L 22.5 133.40625 C 21.621094 133.644531 20.746094 133.007812 20.703125 132.097656 Z M 20.703125 132.097656 " fill-opacity="1" fill-rule="nonzero"/></g><path fill="#ffbd59" d="M 69.078125 135.5625 L 69.207031 138.125 C 69.25 139.035156 70.125 139.667969 71.003906 139.433594 L 73.480469 138.761719 L 71.085938 139.675781 C 70.234375 140 69.898438 141.027344 70.398438 141.792969 L 71.796875 143.9375 L 70.1875 141.941406 C 69.617188 141.234375 68.535156 141.234375 67.964844 141.941406 L 66.355469 143.9375 L 67.757812 141.792969 C 68.253906 141.027344 67.921875 140 67.070312 139.675781 L 64.671875 138.761719 L 67.148438 139.433594 C 68.027344 139.667969 68.902344 139.035156 68.949219 138.125 Z M 69.078125 135.5625 " fill-opacity="1" fill-rule="nonzero"/><path fill="#ffbd59" d="M 122.140625 89.613281 L 122.011719 87.082031 L 121.886719 89.613281 C 121.839844 90.523438 120.964844 91.160156 120.085938 90.921875 L 117.640625 90.261719 L 120.007812 91.164062 C 120.859375 91.488281 121.191406 92.515625 120.695312 93.277344 L 119.308594 95.402344 L 120.902344 93.429688 C 121.472656 92.71875 122.554688 92.71875 123.125 93.429688 L 124.71875 95.402344 L 123.332031 93.277344 C 122.832031 92.515625 123.167969 91.488281 124.019531 91.164062 L 126.386719 90.261719 L 123.941406 90.921875 C 123.058594 91.160156 122.1875 90.523438 122.140625 89.613281 Z M 122.140625 89.613281 " fill-opacity="1" fill-rule="nonzero"/><path fill="#ffbd59" d="M 125.59375 54.945312 L 125.839844 59.761719 C 125.882812 60.667969 126.753906 61.304688 127.632812 61.070312 L 132.359375 59.804688 L 127.808594 61.523438 C 126.949219 61.847656 126.613281 62.882812 127.117188 63.644531 L 129.773438 67.667969 L 126.699219 63.898438 C 126.128906 63.199219 125.058594 63.199219 124.488281 63.898438 L 121.414062 67.667969 L 124.066406 63.644531 C 124.570312 62.878906 124.238281 61.847656 123.378906 61.523438 L 118.828125 59.804688 L 123.554688 61.070312 C 124.429688 61.304688 125.300781 60.667969 125.347656 59.761719 Z M 125.59375 54.945312 " fill-opacity="1" fill-rule="nonzero"/></svg>