<svg xmlns="http://www.w3.org/2000/svg" xmlns:xlink="http://www.w3.org/1999/xlink" width="200" zoomAndPan="magnify" viewBox="0 0 150 187.499995" height="250" preserveAspectRatio="xMidYMid meet" version="1.0"><defs><g/><clipPath id="d3946f5745"><path d="M 26 49.527344 L 124 49.527344 L 124 146.769531 L 26 146.769531 Z M 26 49.527344 " clip-rule="nonzero"/></clipPath><clipPath id="af93a7165e"><path d="M 29 116 L 120 116 L 120 146.769531 L 29 146.769531 Z M 29 116 " clip-rule="nonzero"/></clipPath><clipPath id="dc74cedb12"><path d="M 70 49.527344 L 124 49.527344 L 124 109 L 70 109 Z M 70 49.527344 " clip-rule="nonzero"/></clipPath><clipPath id="43eae489ca"><path d="M 1.910156 80 L 147.773438 80 L 147.773438 122 L 1.910156 122 Z M 1.910156 80 " clip-rule="nonzero"/></clipPath><clipPath id="bf275125f3"><path d="M 33 80 L 147.773438 80 L 147.773438 122 L 33 122 Z M 33 80 " clip-rule="nonzero"/></clipPath></defs><g fill="#ffffff" fill-opacity="1"><g transform="translate(81.406443, 101.089761)"><g><path d="M 0.390625 -0.265625 C 0.390625 -0.378906 0.414062 -0.460938 0.46875 -0.515625 C 0.519531 -0.578125 0.59375 -0.609375 0.6875 -0.609375 C 0.78125 -0.609375 0.851562 -0.578125 0.90625 -0.515625 C 0.96875 -0.460938 1 -0.378906 1 -0.265625 C 1 -0.160156 0.96875 -0.078125 0.90625 -0.015625 C 0.851562 0.046875 0.78125 0.078125 0.6875 0.078125 C 0.601562 0.078125 0.53125 0.0507812 0.46875 0 C 0.414062 -0.0625 0.390625 -0.148438 0.390625 -0.265625 Z M 0.390625 -0.265625 "/></g></g></g><g clip-path="url(#d3946f5745)"><path fill="#f7c549" d="M 123.257812 98.167969 C 123.257812 124.972656 101.582031 146.703125 74.84375 146.703125 C 48.101562 146.703125 26.425781 124.972656 26.425781 98.167969 C 26.425781 71.363281 48.101562 49.632812 74.84375 49.632812 C 101.582031 49.632812 123.257812 71.363281 123.257812 98.167969 " fill-opacity="1" fill-rule="nonzero"/></g><path fill="#eb782a" d="M 110.617188 65.464844 C 108.195312 66.21875 105.8125 67.1875 103.464844 68.089844 C 98.28125 70.082031 92.433594 71.796875 87.117188 70.109375 C 82.59375 68.671875 79.242188 64.988281 74.65625 63.738281 C 69.078125 62.21875 63.226562 64.617188 57.4375 65.214844 C 54.207031 65.546875 50.90625 65.285156 47.78125 64.488281 C 45.921875 64.015625 44.007812 62.953125 42.058594 62.453125 C 38.09375 66.117188 34.738281 70.429688 32.167969 75.230469 C 33.117188 76.171875 34.300781 76.972656 35.5 77.632812 C 41.871094 81.140625 49.765625 82.320312 57.046875 80.84375 C 61.582031 79.925781 65.96875 78.019531 70.613281 78.179688 C 79.15625 78.472656 86.511719 85.683594 94.953125 84.480469 C 99.457031 83.839844 103.285156 80.84375 107.820312 80.472656 C 112.15625 80.117188 116.488281 82.210938 120.71875 82.613281 C 118.550781 76.1875 115.078125 70.367188 110.617188 65.464844 " fill-opacity="1" fill-rule="nonzero"/><path fill="#eb782a" d="M 108.691406 123.039062 C 105.359375 124.625 101.988281 126.621094 98.304688 126.492188 C 93.644531 126.332031 89.726562 122.808594 85.132812 122.019531 C 76.066406 120.460938 68.339844 129.679688 59.148438 130.039062 C 55.265625 130.1875 51.507812 128.722656 47.992188 127.070312 C 44.472656 125.414062 41.003906 123.523438 37.203125 122.726562 C 35.945312 122.460938 34.445312 122.382812 32.945312 122.503906 C 36.855469 129.257812 42.347656 134.976562 48.910156 139.15625 C 55.179688 139.355469 61.574219 138.417969 67.652344 136.835938 C 73.054688 135.433594 78.464844 133.535156 84.042969 133.742188 C 88.5625 133.910156 92.898438 135.453125 97.179688 136.914062 C 98.738281 137.445312 100.3125 137.972656 101.90625 138.417969 C 108.351562 134.050781 113.695312 128.167969 117.425781 121.28125 C 114.566406 120.710938 111.410156 121.75 108.691406 123.039062 " fill-opacity="1" fill-rule="nonzero"/><path fill="#eb782a" d="M 122.722656 90.933594 C 114.066406 90.269531 106.234375 96.859375 97.351562 96.9375 C 89.105469 97.007812 82.085938 91.472656 73.863281 90.972656 C 66.914062 90.554688 60.496094 93.761719 53.765625 95.265625 C 45.929688 97.011719 37.53125 96.296875 30.15625 93.554688 C 29.007812 93.125 27.878906 92.652344 26.769531 92.398438 C 26.542969 94.289062 26.425781 96.214844 26.425781 98.167969 C 26.425781 101.980469 26.867188 105.6875 27.695312 109.25 C 28.0625 109.363281 28.4375 109.464844 28.816406 109.546875 C 36.699219 111.277344 44.382812 106.433594 52.460938 105.523438 C 58.433594 104.847656 64.289062 106.34375 70.152344 107.84375 C 75.859375 109.300781 81.570312 110.757812 87.398438 110.210938 C 91.730469 109.808594 95.84375 108.300781 100.191406 108 C 105.335938 107.644531 110.398438 108.988281 115.503906 109.625 C 117.570312 109.882812 119.742188 109.996094 121.84375 109.84375 C 122.765625 106.101562 123.257812 102.195312 123.257812 98.167969 C 123.257812 95.707031 123.074219 93.292969 122.722656 90.933594 " fill-opacity="1" fill-rule="nonzero"/><path fill="#d43e21" d="M 83.660156 99.246094 C 83.660156 100.796875 81.25 102.054688 78.277344 102.054688 C 75.308594 102.054688 72.898438 100.796875 72.898438 99.246094 C 72.898438 97.695312 75.308594 96.441406 78.277344 96.441406 C 81.25 96.441406 83.660156 97.695312 83.660156 99.246094 " fill-opacity="1" fill-rule="nonzero"/><path fill="#d43e21" d="M 53.574219 72.695312 C 53.574219 73.867188 52.222656 74.816406 50.554688 74.816406 C 48.890625 74.816406 47.539062 73.867188 47.539062 72.695312 C 47.539062 71.523438 48.890625 70.578125 50.554688 70.578125 C 52.222656 70.578125 53.574219 71.523438 53.574219 72.695312 " fill-opacity="1" fill-rule="nonzero"/><path fill="#d43e21" d="M 104.957031 75.847656 C 104.957031 77.417969 103.167969 78.695312 100.960938 78.695312 C 98.757812 78.695312 96.96875 77.417969 96.96875 75.847656 C 96.96875 74.273438 98.757812 73 100.960938 73 C 103.167969 73 104.957031 74.273438 104.957031 75.847656 " fill-opacity="1" fill-rule="nonzero"/><path fill="#d43e21" d="M 45.890625 102.328125 C 45.890625 103.027344 44.933594 103.59375 43.75 103.59375 C 42.566406 103.59375 41.609375 103.027344 41.609375 102.328125 C 41.609375 101.628906 42.566406 101.0625 43.75 101.0625 C 44.933594 101.0625 45.890625 101.628906 45.890625 102.328125 " fill-opacity="1" fill-rule="nonzero"/><path fill="#d43e21" d="M 117.910156 102.4375 C 117.910156 103.074219 117.125 103.59375 116.152344 103.59375 C 115.183594 103.59375 114.398438 103.074219 114.398438 102.4375 C 114.398438 101.800781 115.183594 101.28125 116.152344 101.28125 C 117.125 101.28125 117.910156 101.800781 117.910156 102.4375 " fill-opacity="1" fill-rule="nonzero"/><path fill="#d43e21" d="M 101.828125 131.027344 C 101.828125 132.164062 100.316406 133.089844 98.449219 133.089844 C 96.585938 133.089844 95.074219 132.164062 95.074219 131.027344 C 95.074219 129.886719 96.585938 128.960938 98.449219 128.960938 C 100.316406 128.960938 101.828125 129.886719 101.828125 131.027344 " fill-opacity="1" fill-rule="nonzero"/><path fill="#d43e21" d="M 54.398438 133.253906 C 54.398438 133.984375 53.589844 134.574219 52.585938 134.574219 C 51.585938 134.574219 50.777344 133.984375 50.777344 133.253906 C 50.777344 132.523438 51.585938 131.933594 52.585938 131.933594 C 53.589844 131.933594 54.398438 132.523438 54.398438 133.253906 " fill-opacity="1" fill-rule="nonzero"/><path fill="#eb782a" d="M 68.230469 56.242188 C 68.230469 57.015625 67.324219 57.644531 66.199219 57.644531 C 65.078125 57.644531 64.171875 57.015625 64.171875 56.242188 C 64.171875 55.46875 65.078125 54.839844 66.199219 54.839844 C 67.324219 54.839844 68.230469 55.46875 68.230469 56.242188 " fill-opacity="1" fill-rule="nonzero"/><path fill="#eb782a" d="M 79.265625 86.988281 C 79.265625 87.742188 78.121094 88.351562 76.714844 88.351562 C 75.304688 88.351562 74.160156 87.742188 74.160156 86.988281 C 74.160156 86.238281 75.304688 85.628906 76.714844 85.628906 C 78.121094 85.628906 79.265625 86.238281 79.265625 86.988281 " fill-opacity="1" fill-rule="nonzero"/><path fill="#eb782a" d="M 109.347656 90.882812 C 109.347656 91.636719 108.363281 92.246094 107.152344 92.246094 C 105.9375 92.246094 104.957031 91.636719 104.957031 90.882812 C 104.957031 90.132812 105.9375 89.523438 107.152344 89.523438 C 108.363281 89.523438 109.347656 90.132812 109.347656 90.882812 " fill-opacity="1" fill-rule="nonzero"/><path fill="#eb782a" d="M 95.816406 61.09375 C 95.816406 61.84375 94.671875 62.453125 93.261719 62.453125 C 91.855469 62.453125 90.710938 61.84375 90.710938 61.09375 C 90.710938 60.339844 91.855469 59.730469 93.261719 59.730469 C 94.671875 59.730469 95.816406 60.339844 95.816406 61.09375 " fill-opacity="1" fill-rule="nonzero"/><path fill="#eb782a" d="M 63.046875 121.449219 C 63.046875 122.453125 61.699219 123.265625 60.039062 123.265625 C 58.378906 123.265625 57.035156 122.453125 57.035156 121.449219 C 57.035156 120.445312 58.378906 119.632812 60.039062 119.632812 C 61.699219 119.632812 63.046875 120.445312 63.046875 121.449219 " fill-opacity="1" fill-rule="nonzero"/><path fill="#eb782a" d="M 39.195312 85.710938 C 39.195312 86.773438 38.1875 87.636719 36.941406 87.636719 C 35.699219 87.636719 34.691406 86.773438 34.691406 85.710938 C 34.691406 84.644531 35.699219 83.785156 36.941406 83.785156 C 38.1875 83.785156 39.195312 84.644531 39.195312 85.710938 " fill-opacity="1" fill-rule="nonzero"/><path fill="#eb782a" d="M 116.8125 118.023438 C 116.8125 118.914062 115.707031 119.632812 114.34375 119.632812 C 112.980469 119.632812 111.875 118.914062 111.875 118.023438 C 111.875 117.136719 112.980469 116.414062 114.34375 116.414062 C 115.707031 116.414062 116.8125 117.136719 116.8125 118.023438 " fill-opacity="1" fill-rule="nonzero"/><g clip-path="url(#af93a7165e)"><path fill="#e7e7e6" d="M 74.84375 146.703125 C 54.476562 146.703125 37.046875 134.097656 29.894531 116.246094 C 37.046875 134.097656 54.476562 146.703125 74.84375 146.703125 C 95.207031 146.703125 112.636719 134.097656 119.789062 116.246094 C 112.636719 134.097656 95.207031 146.703125 74.84375 146.703125 " fill-opacity="1" fill-rule="nonzero"/><path fill="#dcb142" d="M 74.84375 146.703125 C 54.476562 146.703125 37.046875 134.097656 29.894531 116.246094 C 32.464844 116.878906 35.167969 117.457031 37.996094 117.980469 C 44.277344 124.34375 52.667969 128.617188 62.03125 129.648438 C 61.085938 129.863281 60.125 130 59.148438 130.039062 C 58.960938 130.046875 58.777344 130.050781 58.59375 130.050781 C 54.90625 130.050781 51.339844 128.644531 47.992188 127.070312 C 44.472656 125.414062 41.003906 123.523438 37.203125 122.726562 C 36.328125 122.542969 35.339844 122.449219 34.316406 122.449219 C 33.863281 122.449219 33.40625 122.46875 32.945312 122.503906 C 36.855469 129.257812 42.347656 134.976562 48.910156 139.15625 C 49.46875 139.175781 50.03125 139.183594 50.589844 139.183594 C 56.320312 139.183594 62.117188 138.277344 67.652344 136.835938 C 72.78125 135.503906 77.914062 133.726562 83.191406 133.726562 C 83.476562 133.726562 83.757812 133.730469 84.042969 133.742188 C 88.5625 133.910156 92.898438 135.453125 97.179688 136.914062 C 98.738281 137.445312 100.3125 137.972656 101.90625 138.417969 C 108.351562 134.050781 113.695312 128.167969 117.425781 121.28125 C 116.875 121.171875 116.3125 121.121094 115.742188 121.121094 C 113.367188 121.121094 110.886719 121.996094 108.691406 123.039062 C 105.460938 124.574219 102.195312 126.5 98.640625 126.5 C 98.527344 126.5 98.417969 126.5 98.304688 126.492188 C 94.894531 126.375 91.878906 124.453125 88.707031 123.125 C 89.929688 122.304688 91.109375 121.414062 92.234375 120.464844 C 99.234375 119.925781 105.832031 119.070312 111.875 117.945312 C 111.875 117.972656 111.875 117.996094 111.875 118.023438 C 111.875 118.914062 112.980469 119.632812 114.34375 119.632812 C 115.707031 119.632812 116.8125 118.914062 116.8125 118.023438 C 116.8125 117.660156 116.625 117.320312 116.308594 117.050781 C 117.496094 116.792969 118.65625 116.523438 119.789062 116.246094 C 112.636719 134.097656 95.207031 146.703125 74.84375 146.703125 " fill-opacity="1" fill-rule="nonzero"/></g><path fill="#d36b24" d="M 50.589844 139.183594 C 50.03125 139.183594 49.46875 139.175781 48.910156 139.15625 C 42.347656 134.976562 36.855469 129.257812 32.945312 122.503906 C 33.40625 122.46875 33.863281 122.449219 34.316406 122.449219 C 35.339844 122.449219 36.328125 122.542969 37.203125 122.726562 C 41.003906 123.523438 44.472656 125.414062 47.992188 127.070312 C 51.339844 128.644531 54.90625 130.050781 58.59375 130.050781 C 58.777344 130.050781 58.960938 130.046875 59.148438 130.039062 C 60.125 130 61.085938 129.863281 62.03125 129.648438 C 63.484375 129.808594 64.960938 129.890625 66.457031 129.890625 C 74.691406 129.890625 82.34375 127.398438 88.707031 123.125 C 91.878906 124.453125 94.894531 126.375 98.304688 126.492188 C 98.417969 126.5 98.527344 126.5 98.640625 126.5 C 102.195312 126.5 105.460938 124.574219 108.691406 123.039062 C 110.886719 121.996094 113.367188 121.121094 115.742188 121.121094 C 116.3125 121.121094 116.875 121.171875 117.425781 121.28125 C 113.695312 128.167969 108.351562 134.050781 101.90625 138.417969 C 100.3125 137.972656 98.738281 137.445312 97.179688 136.914062 C 92.898438 135.453125 88.5625 133.910156 84.042969 133.742188 C 83.757812 133.730469 83.476562 133.726562 83.191406 133.726562 C 77.914062 133.726562 72.78125 135.503906 67.652344 136.835938 C 62.117188 138.277344 56.320312 139.183594 50.589844 139.183594 M 52.585938 131.933594 C 51.585938 131.933594 50.777344 132.523438 50.777344 133.253906 C 50.777344 133.984375 51.585938 134.574219 52.585938 134.574219 C 53.589844 134.574219 54.398438 133.984375 54.398438 133.253906 C 54.398438 132.523438 53.589844 131.933594 52.585938 131.933594 M 98.449219 128.960938 C 96.585938 128.960938 95.074219 129.886719 95.074219 131.027344 C 95.074219 132.164062 96.585938 133.089844 98.449219 133.089844 C 100.316406 133.089844 101.828125 132.164062 101.828125 131.027344 C 101.828125 129.886719 100.316406 128.960938 98.449219 128.960938 " fill-opacity="1" fill-rule="nonzero"/><path fill="#bd3821" d="M 98.449219 133.089844 C 96.585938 133.089844 95.074219 132.164062 95.074219 131.027344 C 95.074219 129.886719 96.585938 128.960938 98.449219 128.960938 C 100.316406 128.960938 101.828125 129.886719 101.828125 131.027344 C 101.828125 132.164062 100.316406 133.089844 98.449219 133.089844 " fill-opacity="1" fill-rule="nonzero"/><g clip-path="url(#dc74cedb12)"><path fill="#dcb142" d="M 101.945312 108.347656 C 102.015625 108.210938 102.085938 108.078125 102.152344 107.941406 C 102.882812 107.949219 103.613281 107.980469 104.339844 108.035156 C 103.554688 108.144531 102.757812 108.246094 101.945312 108.347656 M 122.9375 103.761719 C 123.140625 101.996094 123.25 100.203125 123.257812 98.382812 C 123.25 100.203125 123.140625 101.996094 122.941406 103.761719 C 122.941406 103.761719 122.941406 103.761719 122.9375 103.761719 M 123.257812 98.375 C 123.257812 98.371094 123.257812 98.363281 123.257812 98.355469 C 123.257812 98.363281 123.257812 98.371094 123.257812 98.375 M 123.257812 98.332031 C 123.257812 98.324219 123.257812 98.320312 123.257812 98.316406 C 123.257812 98.320312 123.257812 98.324219 123.257812 98.332031 M 123.257812 98.292969 C 123.257812 98.285156 123.257812 98.285156 123.257812 98.28125 C 123.257812 98.28125 123.257812 98.289062 123.257812 98.292969 M 123.257812 98.25 C 123.257812 98.25 123.257812 98.246094 123.257812 98.242188 C 123.257812 98.246094 123.257812 98.246094 123.257812 98.25 M 123.257812 98.210938 C 123.257812 98.207031 123.257812 98.203125 123.257812 98.203125 C 123.257812 98.207031 123.257812 98.207031 123.257812 98.210938 M 123.257812 98.132812 C 123.257812 98.128906 123.257812 98.125 123.257812 98.121094 C 123.257812 98.125 123.257812 98.128906 123.257812 98.132812 M 123.257812 98.097656 C 123.257812 98.09375 123.257812 98.089844 123.257812 98.085938 C 123.257812 98.089844 123.257812 98.09375 123.257812 98.097656 M 123.257812 98.054688 C 123.257812 98.046875 123.257812 98.042969 123.257812 98.035156 C 123.257812 98.042969 123.257812 98.046875 123.257812 98.054688 M 123.257812 98.019531 C 123.257812 98.011719 123.257812 98.003906 123.257812 97.996094 C 123.257812 98.003906 123.257812 98.011719 123.257812 98.019531 M 123.257812 97.988281 C 123.25 96.15625 123.144531 94.351562 122.9375 92.570312 C 122.941406 92.570312 122.941406 92.574219 122.941406 92.574219 C 123.144531 94.351562 123.25 96.15625 123.257812 97.988281 M 106.132812 95.136719 C 106.261719 94.15625 106.359375 93.167969 106.417969 92.167969 C 106.648438 92.21875 106.894531 92.246094 107.152344 92.246094 C 108.363281 92.246094 109.347656 91.636719 109.347656 90.882812 C 109.347656 90.132812 108.363281 89.523438 107.152344 89.523438 C 106.921875 89.523438 106.695312 89.546875 106.488281 89.585938 C 106.476562 86.59375 106.136719 83.683594 105.503906 80.882812 C 106.261719 80.683594 107.03125 80.539062 107.820312 80.472656 C 108.160156 80.445312 108.496094 80.433594 108.832031 80.433594 C 112.828125 80.433594 116.816406 82.238281 120.714844 82.609375 C 121.617188 85.289062 122.292969 88.066406 122.71875 90.929688 C 122.308594 90.898438 121.898438 90.882812 121.488281 90.882812 C 116.238281 90.882812 111.261719 93.351562 106.132812 95.136719 M 119.789062 80.089844 C 117.613281 74.660156 114.488281 69.71875 110.617188 65.464844 C 108.195312 66.21875 105.8125 67.1875 103.464844 68.089844 C 102.582031 68.429688 101.679688 68.761719 100.761719 69.070312 C 99.207031 66.484375 97.367188 64.085938 95.289062 61.921875 C 95.617188 61.695312 95.816406 61.40625 95.816406 61.09375 C 95.816406 60.339844 94.671875 59.730469 93.261719 59.730469 C 93.179688 59.730469 93.097656 59.734375 93.019531 59.738281 C 86.890625 54.285156 79.078125 50.691406 70.464844 49.832031 C 71.886719 49.707031 73.320312 49.636719 74.773438 49.632812 C 74.785156 49.632812 74.796875 49.632812 74.808594 49.632812 C 74.816406 49.632812 74.832031 49.632812 74.84375 49.632812 C 95.207031 49.632812 112.636719 62.238281 119.789062 80.089844 " fill-opacity="1" fill-rule="nonzero"/></g><path fill="#d36b24" d="M 120.714844 82.609375 C 116.816406 82.238281 112.828125 80.433594 108.832031 80.433594 C 108.496094 80.433594 108.160156 80.445312 107.820312 80.472656 C 107.03125 80.539062 106.261719 80.683594 105.503906 80.882812 C 105.222656 79.628906 104.878906 78.394531 104.484375 77.191406 C 104.785156 76.789062 104.957031 76.332031 104.957031 75.847656 C 104.957031 74.8125 104.179688 73.90625 103.023438 73.40625 C 102.355469 71.910156 101.601562 70.460938 100.761719 69.070312 C 101.679688 68.761719 102.582031 68.429688 103.464844 68.089844 C 105.8125 67.1875 108.195312 66.21875 110.617188 65.464844 C 114.488281 69.71875 117.613281 74.660156 119.789062 80.089844 C 119.789062 80.089844 119.789062 80.089844 119.785156 80.089844 C 119.789062 80.09375 119.789062 80.097656 119.789062 80.101562 C 119.894531 80.355469 119.988281 80.617188 120.085938 80.875 C 120.085938 80.875 120.089844 80.875 120.09375 80.875 C 120.308594 81.449219 120.519531 82.027344 120.714844 82.609375 " fill-opacity="1" fill-rule="nonzero"/><path fill="#d36b24" d="M 104.339844 108.035156 C 103.613281 107.980469 102.882812 107.949219 102.152344 107.941406 C 104.152344 104.003906 105.523438 99.691406 106.132812 95.136719 C 111.261719 93.351562 116.238281 90.882812 121.488281 90.882812 C 121.898438 90.882812 122.308594 90.898438 122.71875 90.929688 C 122.800781 91.472656 122.875 92.019531 122.9375 92.570312 C 123.144531 94.351562 123.25 96.15625 123.257812 97.988281 C 123.257812 97.992188 123.257812 97.996094 123.257812 97.996094 C 123.257812 98.003906 123.257812 98.011719 123.257812 98.019531 C 123.257812 98.023438 123.257812 98.03125 123.257812 98.035156 C 123.257812 98.042969 123.257812 98.046875 123.257812 98.054688 C 123.257812 98.0625 123.257812 98.074219 123.257812 98.085938 C 123.257812 98.089844 123.257812 98.09375 123.257812 98.097656 C 123.257812 98.105469 123.257812 98.113281 123.257812 98.121094 C 123.257812 98.125 123.257812 98.128906 123.257812 98.132812 C 123.257812 98.144531 123.257812 98.15625 123.257812 98.167969 C 123.257812 98.179688 123.257812 98.191406 123.257812 98.203125 C 123.257812 98.203125 123.257812 98.207031 123.257812 98.210938 C 123.257812 98.21875 123.257812 98.234375 123.257812 98.242188 C 123.257812 98.246094 123.257812 98.25 123.257812 98.25 C 123.257812 98.261719 123.257812 98.269531 123.257812 98.28125 C 123.257812 98.285156 123.257812 98.285156 123.257812 98.292969 C 123.257812 98.300781 123.257812 98.308594 123.257812 98.316406 C 123.257812 98.320312 123.257812 98.324219 123.257812 98.332031 C 123.257812 98.339844 123.257812 98.34375 123.257812 98.355469 C 123.257812 98.363281 123.257812 98.371094 123.257812 98.375 C 123.257812 98.378906 123.257812 98.382812 123.257812 98.382812 C 123.25 100.203125 123.140625 101.996094 122.9375 103.761719 C 118.515625 105.5 112.09375 106.972656 104.339844 108.035156 M 116.152344 101.28125 C 115.183594 101.28125 114.398438 101.800781 114.398438 102.4375 C 114.398438 103.074219 115.183594 103.59375 116.152344 103.59375 C 117.125 103.59375 117.910156 103.074219 117.910156 102.4375 C 117.910156 101.800781 117.125 101.28125 116.152344 101.28125 " fill-opacity="1" fill-rule="nonzero"/><path fill="#bd3821" d="M 104.484375 77.191406 C 104.058594 75.898438 103.570312 74.636719 103.023438 73.40625 C 104.179688 73.90625 104.957031 74.8125 104.957031 75.847656 C 104.957031 76.332031 104.785156 76.789062 104.484375 77.191406 " fill-opacity="1" fill-rule="nonzero"/><path fill="#bd3821" d="M 116.152344 103.59375 C 115.183594 103.59375 114.398438 103.074219 114.398438 102.4375 C 114.398438 101.800781 115.183594 101.28125 116.152344 101.28125 C 117.125 101.28125 117.910156 101.800781 117.910156 102.4375 C 117.910156 103.074219 117.125 103.59375 116.152344 103.59375 " fill-opacity="1" fill-rule="nonzero"/><path fill="#e7e7e6" d="M 26.746094 103.761719 L 26.742188 103.761719 C 26.542969 101.996094 26.433594 100.207031 26.425781 98.390625 C 26.433594 99.511719 26.476562 100.621094 26.554688 101.722656 C 26.605469 102.40625 26.667969 103.085938 26.746094 103.761719 M 26.425781 98.382812 C 26.425781 98.371094 26.425781 98.363281 26.425781 98.351562 C 26.425781 98.363281 26.425781 98.371094 26.425781 98.382812 M 26.425781 98.339844 C 26.425781 98.328125 26.425781 98.316406 26.425781 98.308594 C 26.425781 98.316406 26.425781 98.328125 26.425781 98.339844 M 26.425781 98.296875 C 26.425781 98.285156 26.425781 98.277344 26.425781 98.265625 C 26.425781 98.277344 26.425781 98.285156 26.425781 98.296875 M 26.425781 98.25 C 26.425781 98.242188 26.425781 98.234375 26.425781 98.222656 C 26.425781 98.234375 26.425781 98.242188 26.425781 98.25 M 26.425781 98.210938 C 26.425781 98.195312 26.425781 98.179688 26.425781 98.167969 C 26.425781 98.179688 26.425781 98.195312 26.425781 98.210938 M 26.425781 98.136719 C 26.425781 98.132812 26.425781 98.132812 26.425781 98.128906 C 26.425781 98.132812 26.425781 98.132812 26.425781 98.136719 " fill-opacity="1" fill-rule="nonzero"/><path fill="#dcb142" d="M 26.746094 103.761719 C 26.667969 103.085938 26.605469 102.40625 26.554688 101.722656 C 26.605469 102.40625 26.667969 103.085938 26.746094 103.761719 " fill-opacity="1" fill-rule="nonzero"/><path fill="#d36b24" d="M 29.277344 104.660156 C 28.375 104.371094 27.527344 104.070312 26.746094 103.761719 C 26.667969 103.085938 26.605469 102.40625 26.554688 101.722656 C 26.476562 100.621094 26.433594 99.511719 26.425781 98.390625 C 26.425781 98.390625 26.425781 98.386719 26.425781 98.382812 C 26.425781 98.371094 26.425781 98.363281 26.425781 98.351562 C 26.425781 98.347656 26.425781 98.34375 26.425781 98.339844 C 26.425781 98.328125 26.425781 98.316406 26.425781 98.308594 C 26.425781 98.304688 26.425781 98.300781 26.425781 98.296875 C 26.425781 98.285156 26.425781 98.277344 26.425781 98.265625 C 26.425781 98.261719 26.425781 98.257812 26.425781 98.25 C 26.425781 98.242188 26.425781 98.234375 26.425781 98.222656 C 26.425781 98.21875 26.425781 98.210938 26.425781 98.210938 C 26.425781 98.195312 26.425781 98.179688 26.425781 98.167969 C 26.425781 98.15625 26.425781 98.144531 26.425781 98.136719 C 26.425781 98.132812 26.425781 98.132812 26.425781 98.128906 C 26.425781 96.664062 26.496094 95.210938 26.625 93.777344 C 27.003906 97.585938 27.910156 101.238281 29.277344 104.660156 " fill-opacity="1" fill-rule="nonzero"/><path fill="#bd3821" d="M 52.585938 134.574219 C 51.585938 134.574219 50.777344 133.984375 50.777344 133.253906 C 50.777344 132.523438 51.585938 131.933594 52.585938 131.933594 C 53.589844 131.933594 54.398438 132.523438 54.398438 133.253906 C 54.398438 133.984375 53.589844 134.574219 52.585938 134.574219 " fill-opacity="1" fill-rule="nonzero"/><path fill="#d36b24" d="M 107.152344 92.246094 C 106.894531 92.246094 106.648438 92.21875 106.417969 92.167969 C 106.464844 91.371094 106.488281 90.570312 106.488281 89.761719 C 106.488281 89.703125 106.488281 89.644531 106.488281 89.585938 C 106.695312 89.546875 106.921875 89.523438 107.152344 89.523438 C 108.363281 89.523438 109.347656 90.132812 109.347656 90.882812 C 109.347656 91.636719 108.363281 92.246094 107.152344 92.246094 " fill-opacity="1" fill-rule="nonzero"/><path fill="#d36b24" d="M 95.289062 61.921875 C 94.5625 61.164062 93.804688 60.4375 93.019531 59.738281 C 93.097656 59.734375 93.179688 59.730469 93.261719 59.730469 C 94.671875 59.730469 95.816406 60.339844 95.816406 61.09375 C 95.816406 61.40625 95.617188 61.695312 95.289062 61.921875 " fill-opacity="1" fill-rule="nonzero"/><path fill="#d36b24" d="M 114.34375 119.632812 C 112.980469 119.632812 111.875 118.914062 111.875 118.023438 C 111.875 117.996094 111.875 117.972656 111.875 117.945312 C 113.390625 117.664062 114.867188 117.363281 116.308594 117.050781 C 116.625 117.320312 116.8125 117.660156 116.8125 118.023438 C 116.8125 118.914062 115.707031 119.632812 114.34375 119.632812 " fill-opacity="1" fill-rule="nonzero"/><path fill="#f8d16b" d="M 50.308594 93.503906 C 46.917969 93.503906 43.875 92.441406 41.664062 90.222656 C 40.511719 89.066406 39.671875 87.6875 39.132812 86.152344 C 39.171875 86.011719 39.195312 85.863281 39.195312 85.710938 C 39.195312 85.242188 39 84.8125 38.675781 84.480469 C 38.335938 82.800781 38.304688 80.980469 38.566406 79.097656 C 42.386719 80.65625 46.578125 81.46875 50.769531 81.46875 C 52.878906 81.46875 54.988281 81.261719 57.046875 80.84375 C 61.398438 79.960938 65.621094 78.167969 70.058594 78.167969 C 70.246094 78.167969 70.429688 78.171875 70.613281 78.179688 C 71.355469 78.203125 72.089844 78.28125 72.820312 78.402344 C 71.503906 80.835938 69.746094 83.210938 67.578125 85.386719 C 62.316406 90.664062 55.847656 93.503906 50.308594 93.503906 M 54.671875 65.355469 C 52.34375 65.355469 50.019531 65.058594 47.78125 64.488281 C 47.390625 64.390625 47 64.265625 46.609375 64.125 C 51.851562 58.921875 58.261719 56.125 63.757812 56.125 C 63.898438 56.125 64.035156 56.128906 64.175781 56.132812 C 64.171875 56.167969 64.171875 56.203125 64.171875 56.242188 C 64.171875 57.015625 65.078125 57.644531 66.199219 57.644531 C 67.046875 57.644531 67.773438 57.289062 68.078125 56.777344 C 69.71875 57.316406 71.1875 58.1875 72.402344 59.40625 C 73.648438 60.65625 74.527344 62.167969 75.058594 63.855469 C 74.925781 63.816406 74.792969 63.777344 74.65625 63.738281 C 73.351562 63.382812 72.03125 63.242188 70.703125 63.242188 C 66.34375 63.242188 61.871094 64.757812 57.4375 65.214844 C 56.519531 65.308594 55.59375 65.355469 54.671875 65.355469 " fill-opacity="1" fill-rule="nonzero"/><path fill="#ef934d" d="M 50.769531 81.46875 C 46.578125 81.46875 42.386719 80.65625 38.566406 79.097656 C 39.261719 74.15625 41.984375 68.757812 46.488281 64.242188 C 46.527344 64.203125 46.566406 64.164062 46.609375 64.125 C 47 64.265625 47.390625 64.390625 47.78125 64.488281 C 50.019531 65.058594 52.34375 65.355469 54.671875 65.355469 C 55.59375 65.355469 56.519531 65.308594 57.4375 65.214844 C 61.871094 64.757812 66.34375 63.242188 70.703125 63.242188 C 72.03125 63.242188 73.351562 63.382812 74.65625 63.738281 C 74.792969 63.777344 74.925781 63.816406 75.058594 63.855469 C 76.378906 68.054688 75.550781 73.347656 72.820312 78.402344 C 72.089844 78.28125 71.355469 78.203125 70.613281 78.179688 C 70.429688 78.171875 70.246094 78.167969 70.058594 78.167969 C 65.621094 78.167969 61.398438 79.960938 57.046875 80.84375 C 54.988281 81.261719 52.878906 81.46875 50.769531 81.46875 M 50.554688 70.578125 C 48.890625 70.578125 47.539062 71.523438 47.539062 72.695312 C 47.539062 73.867188 48.890625 74.816406 50.554688 74.816406 C 52.222656 74.816406 53.574219 73.867188 53.574219 72.695312 C 53.574219 71.523438 52.222656 70.578125 50.554688 70.578125 " fill-opacity="1" fill-rule="nonzero"/><path fill="#dc5c47" d="M 50.554688 74.816406 C 48.890625 74.816406 47.539062 73.867188 47.539062 72.695312 C 47.539062 71.523438 48.890625 70.578125 50.554688 70.578125 C 52.222656 70.578125 53.574219 71.523438 53.574219 72.695312 C 53.574219 73.867188 52.222656 74.816406 50.554688 74.816406 " fill-opacity="1" fill-rule="nonzero"/><path fill="#ef934d" d="M 66.199219 57.644531 C 65.078125 57.644531 64.171875 57.015625 64.171875 56.242188 C 64.171875 56.203125 64.171875 56.167969 64.175781 56.132812 C 65.550781 56.167969 66.863281 56.382812 68.078125 56.777344 C 67.773438 57.289062 67.046875 57.644531 66.199219 57.644531 " fill-opacity="1" fill-rule="nonzero"/><path fill="#ef934d" d="M 39.132812 86.152344 C 38.945312 85.613281 38.792969 85.054688 38.675781 84.480469 C 39 84.8125 39.195312 85.242188 39.195312 85.710938 C 39.195312 85.863281 39.171875 86.011719 39.132812 86.152344 " fill-opacity="1" fill-rule="nonzero"/><g clip-path="url(#43eae489ca)"><path fill="#d43e21" d="M 119.785156 80.089844 C 121.359375 84.023438 122.4375 88.207031 122.9375 92.570312 C 127.171875 94.234375 129.574219 96.140625 129.574219 98.167969 C 129.574219 104.636719 105.070312 109.882812 74.84375 109.882812 C 44.613281 109.882812 20.109375 104.636719 20.109375 98.167969 C 20.109375 96.140625 22.515625 94.234375 26.75 92.570312 C 27.25 88.207031 28.324219 84.023438 29.898438 80.089844 C 12.863281 84.289062 1.910156 90.824219 1.910156 98.167969 C 1.910156 110.84375 34.5625 121.121094 74.84375 121.121094 C 115.121094 121.121094 147.773438 110.84375 147.773438 98.167969 C 147.773438 90.824219 136.824219 84.289062 119.785156 80.089844 " fill-opacity="1" fill-rule="nonzero"/></g><path fill="#dcb142" d="M 74.804688 121.121094 C 74.800781 121.121094 74.796875 121.121094 74.792969 121.121094 C 74.796875 121.121094 74.800781 121.121094 74.804688 121.121094 M 74.765625 121.121094 C 74.757812 121.121094 74.75 121.121094 74.746094 121.121094 C 74.75 121.121094 74.761719 121.121094 74.765625 121.121094 M 74.714844 121.121094 C 74.710938 121.121094 74.707031 121.121094 74.703125 121.121094 C 74.707031 121.121094 74.710938 121.121094 74.714844 121.121094 M 74.667969 121.121094 C 74.664062 121.121094 74.664062 121.121094 74.660156 121.121094 C 74.664062 121.121094 74.664062 121.121094 74.667969 121.121094 M 74.625 121.121094 C 74.625 121.121094 74.621094 121.121094 74.617188 121.121094 C 74.621094 121.121094 74.621094 121.121094 74.625 121.121094 M 74.578125 121.121094 C 74.574219 121.121094 74.574219 121.121094 74.570312 121.121094 C 74.574219 121.121094 74.574219 121.121094 74.578125 121.121094 M 74.539062 121.117188 C 74.535156 121.117188 74.527344 121.117188 74.527344 121.117188 C 74.53125 121.117188 74.535156 121.117188 74.539062 121.117188 M 74.496094 121.117188 C 74.488281 121.117188 74.484375 121.117188 74.480469 121.117188 C 74.484375 121.117188 74.488281 121.117188 74.496094 121.117188 M 74.449219 121.117188 C 74.445312 121.117188 74.441406 121.117188 74.4375 121.117188 C 74.445312 121.117188 74.445312 121.117188 74.449219 121.117188 M 74.402344 121.117188 C 74.398438 121.117188 74.398438 121.117188 74.394531 121.117188 C 74.398438 121.117188 74.402344 121.117188 74.402344 121.117188 M 74.359375 121.117188 C 74.355469 121.117188 74.355469 121.117188 74.351562 121.117188 C 74.355469 121.117188 74.355469 121.117188 74.359375 121.117188 M 74.3125 121.117188 C 74.3125 121.117188 74.308594 121.117188 74.308594 121.117188 C 74.308594 121.117188 74.308594 121.117188 74.3125 121.117188 M 74.269531 121.117188 C 74.269531 121.117188 74.265625 121.117188 74.261719 121.117188 C 74.265625 121.117188 74.269531 121.117188 74.269531 121.117188 M 74.222656 121.117188 C 74.222656 121.117188 74.21875 121.117188 74.21875 121.117188 C 74.21875 121.117188 74.222656 121.117188 74.222656 121.117188 M 74.183594 121.117188 C 74.179688 121.117188 74.175781 121.117188 74.171875 121.117188 C 74.175781 121.117188 74.179688 121.117188 74.183594 121.117188 M 74.136719 121.117188 C 74.132812 121.117188 74.128906 121.117188 74.128906 121.117188 C 74.128906 121.117188 74.132812 121.117188 74.136719 121.117188 M 74.09375 121.117188 C 74.089844 121.117188 74.089844 121.117188 74.085938 121.117188 C 74.089844 121.117188 74.089844 121.117188 74.09375 121.117188 M 74.046875 121.117188 C 74.046875 121.117188 74.042969 121.117188 74.042969 121.117188 C 74.042969 121.117188 74.042969 121.117188 74.046875 121.117188 M 74.003906 121.117188 C 74.003906 121.117188 74 121.117188 74 121.117188 C 74 121.117188 74 121.117188 74.003906 121.117188 M 73.828125 121.117188 C 73.824219 121.117188 73.824219 121.117188 73.820312 121.117188 C 73.824219 121.117188 73.824219 121.117188 73.828125 121.117188 M 73.738281 121.117188 C 73.734375 121.117188 73.734375 121.117188 73.734375 121.117188 L 73.738281 121.117188 " fill-opacity="1" fill-rule="nonzero"/><path fill="#bb6023" d="M 120.09375 80.875 C 120.089844 80.875 120.085938 80.875 120.085938 80.875 C 119.988281 80.617188 119.894531 80.355469 119.789062 80.101562 C 119.894531 80.359375 119.992188 80.617188 120.09375 80.875 " fill-opacity="1" fill-rule="nonzero"/><g clip-path="url(#bf275125f3)"><path fill="#bd3821" d="M 74.84375 121.121094 C 74.828125 121.121094 74.816406 121.121094 74.804688 121.121094 C 74.800781 121.121094 74.796875 121.121094 74.792969 121.121094 C 74.78125 121.121094 74.773438 121.121094 74.765625 121.121094 C 74.761719 121.121094 74.75 121.121094 74.746094 121.121094 C 74.734375 121.121094 74.726562 121.121094 74.714844 121.121094 C 74.710938 121.121094 74.707031 121.121094 74.703125 121.121094 C 74.691406 121.121094 74.679688 121.121094 74.667969 121.121094 C 74.664062 121.121094 74.664062 121.121094 74.660156 121.121094 C 74.648438 121.121094 74.636719 121.121094 74.625 121.121094 C 74.621094 121.121094 74.621094 121.121094 74.617188 121.121094 C 74.601562 121.121094 74.589844 121.121094 74.578125 121.121094 C 74.574219 121.121094 74.574219 121.121094 74.570312 121.121094 C 74.558594 121.121094 74.550781 121.121094 74.539062 121.117188 C 74.535156 121.117188 74.53125 121.117188 74.527344 121.117188 C 74.515625 121.117188 74.503906 121.117188 74.496094 121.117188 C 74.488281 121.117188 74.484375 121.117188 74.480469 121.117188 C 74.46875 121.117188 74.460938 121.117188 74.449219 121.117188 C 74.445312 121.117188 74.445312 121.117188 74.4375 121.117188 C 74.425781 121.117188 74.414062 121.117188 74.402344 121.117188 C 74.402344 121.117188 74.398438 121.117188 74.394531 121.117188 C 74.382812 121.117188 74.371094 121.117188 74.359375 121.117188 C 74.355469 121.117188 74.355469 121.117188 74.351562 121.117188 C 74.335938 121.117188 74.324219 121.117188 74.3125 121.117188 C 74.308594 121.117188 74.308594 121.117188 74.308594 121.117188 C 74.292969 121.117188 74.28125 121.117188 74.269531 121.117188 C 74.269531 121.117188 74.265625 121.117188 74.261719 121.117188 C 74.25 121.117188 74.238281 121.117188 74.222656 121.117188 C 74.222656 121.117188 74.21875 121.117188 74.21875 121.117188 C 74.207031 121.117188 74.195312 121.117188 74.183594 121.117188 C 74.179688 121.117188 74.175781 121.117188 74.171875 121.117188 C 74.160156 121.117188 74.148438 121.117188 74.136719 121.117188 C 74.132812 121.117188 74.128906 121.117188 74.128906 121.117188 C 74.117188 121.117188 74.105469 121.117188 74.09375 121.117188 C 74.089844 121.117188 74.089844 121.117188 74.085938 121.117188 C 74.070312 121.117188 74.058594 121.117188 74.046875 121.117188 C 74.042969 121.117188 74.042969 121.117188 74.042969 121.117188 C 74.027344 121.117188 74.015625 121.117188 74.003906 121.117188 C 74 121.117188 74 121.117188 74 121.117188 C 73.941406 121.117188 73.882812 121.117188 73.828125 121.117188 C 73.824219 121.117188 73.824219 121.117188 73.820312 121.117188 C 73.792969 121.117188 73.765625 121.117188 73.738281 121.117188 L 73.734375 121.117188 C 59.023438 121.050781 45.367188 119.609375 33.996094 117.183594 C 44.054688 118.832031 55.480469 119.761719 67.597656 119.761719 C 107.875 119.761719 140.527344 109.484375 140.527344 96.808594 C 140.527344 90.621094 132.746094 85.003906 120.09375 80.875 C 119.992188 80.617188 119.894531 80.359375 119.789062 80.101562 C 119.789062 80.097656 119.789062 80.09375 119.785156 80.089844 C 136.824219 84.289062 147.773438 90.824219 147.773438 98.167969 C 147.773438 105.996094 135.320312 112.910156 116.308594 117.050781 C 114.867188 117.363281 113.390625 117.664062 111.875 117.945312 C 105.832031 119.070312 99.234375 119.925781 92.234375 120.464844 C 86.660156 120.890625 80.835938 121.121094 74.84375 121.121094 " fill-opacity="1" fill-rule="nonzero"/></g><path fill="#dc5c47" d="M 21.128906 110.824219 C 20.691406 110.824219 20.214844 110.722656 19.746094 110.511719 C 18.464844 109.933594 17.746094 108.753906 18.140625 107.871094 C 18.390625 107.3125 19.03125 107.011719 19.789062 107.011719 C 20.230469 107.011719 20.707031 107.109375 21.175781 107.320312 C 22.457031 107.898438 23.175781 109.082031 22.777344 109.960938 C 22.527344 110.519531 21.890625 110.824219 21.128906 110.824219 " fill-opacity="1" fill-rule="nonzero"/><path fill="#dc5c47" d="M 15.503906 107.695312 C 14.078125 107.695312 11.882812 106.773438 9.761719 105.160156 C 6.742188 102.867188 5.015625 100.058594 5.902344 98.882812 C 6.167969 98.535156 6.632812 98.367188 7.234375 98.367188 C 8.660156 98.367188 10.855469 99.292969 12.976562 100.902344 C 15.996094 103.195312 17.726562 106.003906 16.839844 107.179688 C 16.574219 107.53125 16.109375 107.695312 15.503906 107.695312 " fill-opacity="1" fill-rule="nonzero"/></svg>